<svg width="41" height="56" viewBox="0 0 41 56" fill="none" xmlns="http://www.w3.org/2000/svg">
<path d="M29.8232 20.0422C29.8232 25.5746 25.3162 30.0631 19.7565 30.0631C14.1959 30.0631 9.68966 25.5746 9.68966 20.0422C9.68966 14.5082 14.1967 10.0213 19.7565 10.0213C25.3174 10.0209 29.8232 14.5078 29.8232 20.0422ZM40.268 20.0422C40.268 8.97297 31.2542 0 20.134 0C9.01453 0 0 8.97297 0 20.0422C0 24.909 1.74442 29.3713 4.6432 32.8423L20.1514 55.1157L35.8864 32.5174C36.4515 31.8134 36.9691 31.0714 37.4361 30.2914L37.5952 30.0643H37.569C39.2826 27.1144 40.268 23.6944 40.268 20.0422Z" fill="#DAAB71"/>
</svg>
