<svg width="464" height="72" viewBox="0 0 464 72" fill="none" xmlns="http://www.w3.org/2000/svg">
<path d="M151.155 52.198C150.223 53.111 149.097 53.5674 147.777 53.5674C146.433 53.5674 145.301 53.111 144.38 52.198C143.46 51.2729 143 50.1348 143 48.7837C143 47.4326 143.46 46.3006 144.38 45.3876C145.301 44.4625 146.433 44 147.777 44C149.109 44 150.235 44.4625 151.155 45.3876C152.088 46.3006 152.554 47.4326 152.554 48.7837C152.554 50.1227 152.088 51.2608 151.155 52.198ZM145.234 51.3581C145.924 52.052 146.772 52.3989 147.777 52.3989C148.782 52.3989 149.63 52.052 150.32 51.3581C151.01 50.64 151.355 49.7818 151.355 48.7837C151.355 47.7734 151.01 46.9213 150.32 46.2275C149.63 45.5215 148.782 45.1685 147.777 45.1685C146.772 45.1685 145.924 45.5215 145.234 46.2275C144.544 46.9213 144.199 47.7734 144.199 48.7837C144.199 49.7818 144.544 50.64 145.234 51.3581Z" fill="#2F444E"/>
<path d="M163.097 44.2191V52.1798H164.55V55.7949H163.351V53.3483H155.65V44.2191H156.848V52.1798H161.898V44.2191H163.097Z" fill="#2F444E"/>
<path d="M171.294 44C172.65 44 173.734 44.4808 174.545 45.4424C175.381 46.3919 175.798 47.5178 175.798 48.8202C175.798 48.8811 175.786 49.0698 175.762 49.3862H167.788C167.91 50.2992 168.297 51.0295 168.951 51.5772C169.605 52.125 170.422 52.3989 171.403 52.3989C172.783 52.3989 173.758 51.8816 174.327 50.8469L175.381 51.4677C174.981 52.125 174.43 52.6423 173.728 53.0197C173.038 53.3848 172.257 53.5674 171.385 53.5674C169.956 53.5674 168.793 53.117 167.897 52.2163C167.001 51.3155 166.553 50.1713 166.553 48.7837C166.553 47.4082 166.995 46.2701 167.879 45.3694C168.763 44.4565 169.901 44 171.294 44ZM171.294 45.1685C170.349 45.1685 169.556 45.4485 168.915 46.0084C168.285 46.5684 167.91 47.3048 167.788 48.2177H174.563C174.43 47.2439 174.061 46.4953 173.455 45.9719C172.826 45.4363 172.105 45.1685 171.294 45.1685Z" fill="#2F444E"/>
<path d="M185.225 48.1994V44.2191H186.424V53.3483H185.225V49.368H179.994V53.3483H178.795V44.2191H179.994V48.1994H185.225Z" fill="#2F444E"/>
<path d="M192.519 48.6011L197.386 53.3483H195.788L191.247 48.948V53.3483H190.048V44.2191H191.247V48.2542L195.57 44.2191H197.205L192.519 48.6011Z" fill="#2F444E"/>
<path d="M207.019 46.0084V44.2191H208.218V53.3483H207.019V51.559C206.184 52.8979 204.961 53.5674 203.35 53.5674C202.054 53.5674 200.946 53.1049 200.026 52.1798C199.118 51.2547 198.664 50.1227 198.664 48.7837C198.664 47.4448 199.118 46.3127 200.026 45.3876C200.946 44.4625 202.054 44 203.35 44C204.961 44 206.184 44.6695 207.019 46.0084ZM200.898 51.3581C201.588 52.052 202.436 52.3989 203.441 52.3989C204.446 52.3989 205.294 52.052 205.984 51.3581C206.674 50.64 207.019 49.7818 207.019 48.7837C207.019 47.7734 206.674 46.9213 205.984 46.2275C205.294 45.5215 204.446 45.1685 203.441 45.1685C202.436 45.1685 201.588 45.5215 200.898 46.2275C200.208 46.9213 199.863 47.7734 199.863 48.7837C199.863 49.7818 200.208 50.64 200.898 51.3581Z" fill="#2F444E"/>
<path d="M235.167 48.1994V44.2191H236.366V53.3483H235.167V49.368H229.936V53.3483H228.738V44.2191H229.936V48.1994H235.167Z" fill="#2F444E"/>
<path d="M244.187 44C245.543 44 246.627 44.4808 247.438 45.4424C248.273 46.3919 248.691 47.5178 248.691 48.8202C248.691 48.8811 248.679 49.0698 248.655 49.3862H240.681C240.802 50.2992 241.19 51.0295 241.844 51.5772C242.498 52.125 243.315 52.3989 244.296 52.3989C245.676 52.3989 246.651 51.8816 247.22 50.8469L248.273 51.4677C247.874 52.125 247.323 52.6423 246.621 53.0197C245.93 53.3848 245.149 53.5674 244.278 53.5674C242.849 53.5674 241.686 53.117 240.79 52.2163C239.894 51.3155 239.446 50.1713 239.446 48.7837C239.446 47.4082 239.888 46.2701 240.772 45.3694C241.656 44.4565 242.794 44 244.187 44ZM244.187 45.1685C243.242 45.1685 242.449 45.4485 241.807 46.0084C241.178 46.5684 240.802 47.3048 240.681 48.2177H247.456C247.323 47.2439 246.954 46.4953 246.348 45.9719C245.719 45.4363 244.998 45.1685 244.187 45.1685Z" fill="#2F444E"/>
<path d="M256.197 48.6559C257.25 49.0576 257.777 49.7879 257.777 50.8469C257.777 51.6138 257.48 52.2589 256.887 52.7823C256.318 53.3057 255.482 53.5674 254.38 53.5674C252.54 53.5674 251.341 52.8371 250.784 51.3764L251.801 50.7739C252.189 51.8572 253.048 52.3989 254.38 52.3989C255.071 52.3989 255.609 52.2528 255.997 51.9607C256.384 51.6564 256.578 51.2608 256.578 50.7739C256.578 50.3357 256.421 49.9888 256.106 49.7331C255.791 49.4654 255.367 49.3315 254.834 49.3315H253.508V48.1629H254.471C254.992 48.1629 255.397 48.0351 255.688 47.7795C255.991 47.5117 256.142 47.1465 256.142 46.684C256.142 46.2458 255.961 45.8867 255.597 45.6067C255.246 45.3146 254.78 45.1685 254.199 45.1685C253.073 45.1685 252.316 45.625 251.928 46.5379L250.929 45.9537C251.535 44.6512 252.625 44 254.199 44C255.167 44 255.93 44.2556 256.487 44.7669C257.056 45.2659 257.341 45.8806 257.341 46.611C257.341 47.5482 256.96 48.2299 256.197 48.6559Z" fill="#2F444E"/>
<path d="M268.499 46.0084V44.2191H269.698V53.3483H268.499V51.559C267.663 52.8979 266.44 53.5674 264.83 53.5674C263.534 53.5674 262.426 53.1049 261.506 52.1798C260.598 51.2547 260.144 50.1227 260.144 48.7837C260.144 47.4448 260.598 46.3127 261.506 45.3876C262.426 44.4625 263.534 44 264.83 44C266.44 44 267.663 44.6695 268.499 46.0084ZM262.378 51.3581C263.068 52.052 263.916 52.3989 264.921 52.3989C265.926 52.3989 266.773 52.052 267.464 51.3581C268.154 50.64 268.499 49.7818 268.499 48.7837C268.499 47.7734 268.154 46.9213 267.464 46.2275C266.773 45.5215 265.926 45.1685 264.921 45.1685C263.916 45.1685 263.068 45.5215 262.378 46.2275C261.688 46.9213 261.343 47.7734 261.343 48.7837C261.343 49.7818 261.688 50.64 262.378 51.3581Z" fill="#2F444E"/>
<path d="M279.101 48.6559C280.094 49.0211 280.591 49.7331 280.591 50.7921C280.591 51.5468 280.337 52.1615 279.828 52.6362C279.332 53.111 278.635 53.3483 277.739 53.3483H273.326V44.2191H277.376C278.248 44.2191 278.926 44.4443 279.41 44.8947C279.907 45.345 280.155 45.9354 280.155 46.6657C280.155 47.5787 279.804 48.242 279.101 48.6559ZM277.376 45.3876H274.524V48.1629H277.376C278.429 48.1629 278.956 47.6882 278.956 46.7388C278.956 46.3127 278.817 45.9841 278.538 45.7528C278.272 45.5094 277.885 45.3876 277.376 45.3876ZM274.524 52.1798H277.739C278.272 52.1798 278.678 52.052 278.956 51.7963C279.247 51.5407 279.392 51.1816 279.392 50.7191C279.392 50.2809 279.247 49.9401 278.956 49.6966C278.678 49.4532 278.272 49.3315 277.739 49.3315H274.524V52.1798Z" fill="#2F444E"/>
<path d="M284.696 51.2486L290.108 44.2191H291.126V53.3483H289.927V46.3188L284.514 53.3483H283.497V44.2191H284.696V51.2486Z" fill="#2F444E"/>
<path d="M298.982 53.5674C297.614 53.5674 296.476 53.111 295.568 52.198C294.66 51.2608 294.206 50.1227 294.206 48.7837C294.206 47.4326 294.66 46.3006 295.568 45.3876C296.476 44.4625 297.614 44 298.982 44C299.878 44 300.684 44.2191 301.398 44.6573C302.113 45.0833 302.633 45.6615 302.96 46.3919L301.979 46.9579C301.737 46.4101 301.344 45.978 300.799 45.6615C300.266 45.3329 299.661 45.1685 298.982 45.1685C297.977 45.1685 297.13 45.5215 296.44 46.2275C295.749 46.9213 295.404 47.7734 295.404 48.7837C295.404 49.7818 295.749 50.64 296.44 51.3581C297.13 52.052 297.977 52.3989 298.982 52.3989C299.648 52.3989 300.248 52.2406 300.781 51.9242C301.326 51.6077 301.749 51.1695 302.052 50.6096L303.051 51.1938C302.676 51.9242 302.125 52.5023 301.398 52.9284C300.672 53.3544 299.866 53.5674 298.982 53.5674Z" fill="#2F444E"/>
<path d="M307.061 51.2486L312.473 44.2191H313.49V53.3483H312.292V46.3188L306.879 53.3483H305.862V44.2191H307.061V51.2486Z" fill="#2F444E"/>
<path d="M324.635 44.2191H326.015V53.3483H324.817V46.0632L321.638 51.2486H321.493L318.314 46.0632V53.3483H317.115V44.2191H318.496L321.565 49.2219L324.635 44.2191Z" fill="#2F444E"/>
<path d="M337.456 46.0084V44.2191H338.655V53.3483H337.456V51.559C336.621 52.8979 335.398 53.5674 333.787 53.5674C332.491 53.5674 331.383 53.1049 330.463 52.1798C329.555 51.2547 329.101 50.1227 329.101 48.7837C329.101 47.4448 329.555 46.3127 330.463 45.3876C331.383 44.4625 332.491 44 333.787 44C335.398 44 336.621 44.6695 337.456 46.0084ZM331.335 51.3581C332.025 52.052 332.873 52.3989 333.878 52.3989C334.883 52.3989 335.731 52.052 336.421 51.3581C337.111 50.64 337.456 49.7818 337.456 48.7837C337.456 47.7734 337.111 46.9213 336.421 46.2275C335.731 45.5215 334.883 45.1685 333.878 45.1685C332.873 45.1685 332.025 45.5215 331.335 46.2275C330.645 46.9213 330.3 47.7734 330.3 48.7837C330.3 49.7818 330.645 50.64 331.335 51.3581Z" fill="#2F444E"/>
<path d="M345.134 44.2191H348.822V53.3483H347.623V49.8427H346.061L343.264 53.3483H341.738L344.608 49.8062C343.869 49.6966 343.264 49.3923 342.791 48.8933C342.331 48.382 342.101 47.7673 342.101 47.0492C342.101 46.2336 342.392 45.5581 342.973 45.0225C343.578 44.4869 344.299 44.2191 345.134 44.2191ZM345.134 48.7107H347.623V45.3876H345.134C344.614 45.3876 344.178 45.5459 343.827 45.8624C343.476 46.1667 343.3 46.5623 343.3 47.0492C343.3 47.536 343.476 47.9377 343.827 48.2542C344.178 48.5585 344.614 48.7107 345.134 48.7107Z" fill="#2F444E"/>
<path d="M361.318 44C362.686 44 363.788 44.4565 364.624 45.3694C365.459 46.2701 365.877 47.4082 365.877 48.7837C365.877 50.1713 365.453 51.3155 364.605 52.2163C363.77 53.117 362.662 53.5674 361.282 53.5674C360.313 53.5674 359.465 53.3544 358.739 52.9284C358.024 52.4902 357.504 51.8998 357.177 51.1573L358.212 50.5548C358.43 51.1269 358.805 51.5772 359.338 51.9059C359.871 52.2346 360.519 52.3989 361.282 52.3989C362.178 52.3989 362.928 52.1189 363.534 51.559C364.151 50.9991 364.521 50.2687 364.642 49.368H360.119V48.1994H364.642C364.533 47.2987 364.176 46.5684 363.57 46.0084C362.965 45.4485 362.214 45.1685 361.318 45.1685C360.628 45.1685 360.016 45.3329 359.483 45.6615C358.951 45.9902 358.557 46.4345 358.303 46.9944L357.249 46.3919C357.613 45.6493 358.151 45.0651 358.866 44.639C359.592 44.213 360.41 44 361.318 44Z" fill="#2F444E"/>
<path d="M371.436 48.6011L376.304 53.3483H374.705L370.165 48.948V53.3483H368.966V44.2191H370.165V48.2542L374.487 44.2191H376.122L371.436 48.6011Z" fill="#2F444E"/>
<path d="M382.358 53.5674C380.99 53.5674 379.852 53.111 378.943 52.198C378.035 51.2608 377.581 50.1227 377.581 48.7837C377.581 47.4326 378.035 46.3006 378.943 45.3876C379.852 44.4625 380.99 44 382.358 44C383.254 44 384.059 44.2191 384.774 44.6573C385.488 45.0833 386.009 45.6615 386.336 46.3919L385.355 46.9579C385.113 46.4101 384.719 45.978 384.174 45.6615C383.642 45.3329 383.036 45.1685 382.358 45.1685C381.353 45.1685 380.506 45.5215 379.815 46.2275C379.125 46.9213 378.78 47.7734 378.78 48.7837C378.78 49.7818 379.125 50.64 379.815 51.3581C380.506 52.052 381.353 52.3989 382.358 52.3989C383.024 52.3989 383.624 52.2406 384.156 51.9242C384.701 51.6077 385.125 51.1695 385.428 50.6096L386.427 51.1938C386.051 51.9242 385.5 52.5023 384.774 52.9284C384.047 53.3544 383.242 53.5674 382.358 53.5674Z" fill="#2F444E"/>
<path d="M389.238 44.2191H396.866V53.3483H395.667V45.3876H390.436V53.3483H389.238V44.2191Z" fill="#2F444E"/>
<path d="M404.687 44C406.043 44 407.127 44.4808 407.938 45.4424C408.773 46.3919 409.191 47.5178 409.191 48.8202C409.191 48.8811 409.179 49.0698 409.155 49.3862H401.181C401.302 50.2992 401.69 51.0295 402.344 51.5772C402.998 52.125 403.815 52.3989 404.796 52.3989C406.176 52.3989 407.151 51.8816 407.72 50.8469L408.773 51.4677C408.374 52.125 407.823 52.6423 407.121 53.0197C406.43 53.3848 405.649 53.5674 404.778 53.5674C403.349 53.5674 402.186 53.117 401.29 52.2163C400.394 51.3155 399.946 50.1713 399.946 48.7837C399.946 47.4082 400.388 46.2701 401.272 45.3694C402.156 44.4565 403.294 44 404.687 44ZM404.687 45.1685C403.742 45.1685 402.949 45.4485 402.307 46.0084C401.678 46.5684 401.302 47.3048 401.181 48.2177H407.956C407.823 47.2439 407.454 46.4953 406.848 45.9719C406.219 45.4363 405.498 45.1685 404.687 45.1685Z" fill="#2F444E"/>
<path d="M417.056 44C418.351 44 419.453 44.4625 420.361 45.3876C421.282 46.3127 421.742 47.4448 421.742 48.7837C421.742 50.1227 421.282 51.2547 420.361 52.1798C419.453 53.1049 418.351 53.5674 417.056 53.5674C415.445 53.5674 414.222 52.8979 413.387 51.559V57H412.188V44.2191H413.387V46.0084C414.222 44.6695 415.445 44 417.056 44ZM414.422 51.3581C415.112 52.052 415.96 52.3989 416.965 52.3989C417.97 52.3989 418.817 52.052 419.508 51.3581C420.198 50.64 420.543 49.7818 420.543 48.7837C420.543 47.7734 420.198 46.9213 419.508 46.2275C418.817 45.5215 417.97 45.1685 416.965 45.1685C415.96 45.1685 415.112 45.5215 414.422 46.2275C413.732 46.9213 413.387 47.7734 413.387 48.7837C413.387 49.7818 413.732 50.64 414.422 51.3581Z" fill="#2F444E"/>
<path d="M423.38 44.2191H431.009V45.3876H427.794V53.3483H426.595V45.3876H423.38V44.2191Z" fill="#2F444E"/>
<path d="M434.758 51.2486L440.171 44.2191H441.188V53.3483H439.989V46.3188L434.577 53.3483H433.56V44.2191H434.758V51.2486Z" fill="#2F444E"/>
<path d="M449.499 48.6559C450.552 49.0576 451.079 49.7879 451.079 50.8469C451.079 51.6138 450.783 52.2589 450.189 52.7823C449.62 53.3057 448.785 53.5674 447.683 53.5674C445.842 53.5674 444.643 52.8371 444.086 51.3764L445.104 50.7739C445.491 51.8572 446.351 52.3989 447.683 52.3989C448.373 52.3989 448.912 52.2528 449.299 51.9607C449.687 51.6564 449.88 51.2608 449.88 50.7739C449.88 50.3357 449.723 49.9888 449.408 49.7331C449.093 49.4654 448.67 49.3315 448.137 49.3315H446.811V48.1629H447.774C448.294 48.1629 448.7 48.0351 448.99 47.7795C449.293 47.5117 449.445 47.1465 449.445 46.684C449.445 46.2458 449.263 45.8867 448.9 45.6067C448.548 45.3146 448.082 45.1685 447.501 45.1685C446.375 45.1685 445.618 45.625 445.231 46.5379L444.232 45.9537C444.837 44.6512 445.927 44 447.501 44C448.47 44 449.233 44.2556 449.79 44.7669C450.359 45.2659 450.643 45.8806 450.643 46.611C450.643 47.5482 450.262 48.2299 449.499 48.6559Z" fill="#2F444E"/>
<path d="M461.801 46.0084V44.2191H463V53.3483H461.801V51.559C460.966 52.8979 459.743 53.5674 458.132 53.5674C456.837 53.5674 455.729 53.1049 454.808 52.1798C453.9 51.2547 453.446 50.1227 453.446 48.7837C453.446 47.4448 453.9 46.3127 454.808 45.3876C455.729 44.4625 456.837 44 458.132 44C459.743 44 460.966 44.6695 461.801 46.0084ZM455.68 51.3581C456.37 52.052 457.218 52.3989 458.223 52.3989C459.228 52.3989 460.076 52.052 460.766 51.3581C461.456 50.64 461.801 49.7818 461.801 48.7837C461.801 47.7734 461.456 46.9213 460.766 46.2275C460.076 45.5215 459.228 45.1685 458.223 45.1685C457.218 45.1685 456.37 45.5215 455.68 46.2275C454.99 46.9213 454.645 47.7734 454.645 48.7837C454.645 49.7818 454.99 50.64 455.68 51.3581Z" fill="#2F444E"/>
<path d="M387.573 27.4136C386.065 28.9256 384.22 29.6816 382.038 29.6816C379.856 29.6816 378.003 28.9256 376.482 27.4136C374.974 25.8872 374.22 24.0296 374.22 21.8408C374.22 19.652 374.974 17.8016 376.482 16.2896C378.003 14.7632 379.856 14 382.038 14C384.22 14 386.065 14.7632 387.573 16.2896C389.095 17.8016 389.856 19.652 389.856 21.8408C389.856 24.0296 389.095 25.8872 387.573 27.4136ZM378.226 25.7288C379.274 26.7512 380.545 27.2624 382.038 27.2624C383.546 27.2624 384.809 26.7512 385.828 25.7288C386.862 24.692 387.379 23.396 387.379 21.8408C387.379 20.2856 386.862 18.9968 385.828 17.9744C384.809 16.9376 383.546 16.4192 382.038 16.4192C380.53 16.4192 379.26 16.9376 378.226 17.9744C377.207 18.9968 376.697 20.2856 376.697 21.8408C376.697 23.3816 377.207 24.6776 378.226 25.7288Z" fill="#BB382A"/>
<path d="M404.283 14.2808V27.0248H405.898V32.2952H403.422V29.4008H393.192V14.2808H395.668V27.0248H401.806V14.2808H404.283Z" fill="#BB382A"/>
<path d="M411.615 22.9424V27.0248H418.291V29.4008H409.138V14.2808H418.184V16.6568H411.615V20.588H417.645V22.9424H411.615Z" fill="#BB382A"/>
<path d="M430.573 20.48V14.2808H433.05V29.4008H430.573V22.856H424.112V29.4008H421.635V14.2808H424.112V20.48H430.573Z" fill="#BB382A"/>
<path d="M442.201 21.6464L448.511 29.4008H445.561L439.617 22.208V29.4008H437.14V14.2808H439.617V21.0632L445.345 14.2808H448.296L442.201 21.6464Z" fill="#BB382A"/>
<path d="M464 29.4008H461.33L460.274 26.3552H453.856L452.801 29.4008H450.109L455.579 14.2808H458.551L464 29.4008ZM457.065 17.1968L454.675 24.0224H459.456L457.065 17.1968Z" fill="#BB382A"/>
<path d="M148.95 21.6464L155.26 29.4008H152.309L146.365 22.208V29.4008H143.888V14.2808H146.365V21.0632L152.094 14.2808H155.044L148.95 21.6464Z" fill="#2F444E"/>
<path d="M169.258 27.4136C167.75 28.9256 165.905 29.6816 163.723 29.6816C161.541 29.6816 159.688 28.9256 158.167 27.4136C156.659 25.8872 155.905 24.0296 155.905 21.8408C155.905 19.652 156.659 17.8016 158.167 16.2896C159.688 14.7632 161.541 14 163.723 14C165.905 14 167.75 14.7632 169.258 16.2896C170.78 17.8016 171.541 19.652 171.541 21.8408C171.541 24.0296 170.78 25.8872 169.258 27.4136ZM159.911 25.7288C160.959 26.7512 162.23 27.2624 163.723 27.2624C165.231 27.2624 166.494 26.7512 167.513 25.7288C168.547 24.692 169.064 23.396 169.064 21.8408C169.064 20.2856 168.547 18.9968 167.513 17.9744C166.494 16.9376 165.231 16.4192 163.723 16.4192C162.215 16.4192 160.945 16.9376 159.911 17.9744C158.892 18.9968 158.382 20.2856 158.382 21.8408C158.382 23.3816 158.892 24.6776 159.911 25.7288Z" fill="#2F444E"/>
<path d="M183.814 20.48V14.2808H186.291V29.4008H183.814V22.856H177.353V29.4008H174.877V14.2808H177.353V20.48H183.814Z" fill="#2F444E"/>
<path d="M197.51 29.6816C195.242 29.6816 193.361 28.9328 191.867 27.4352C190.374 25.9088 189.628 24.044 189.628 21.8408C189.628 19.6232 190.374 17.7656 191.867 16.268C193.346 14.756 195.227 14 197.51 14C198.874 14 200.13 14.324 201.279 14.972C202.442 15.62 203.346 16.4984 203.993 17.6072L201.839 18.86C201.437 18.1112 200.848 17.5208 200.073 17.0888C199.312 16.6424 198.458 16.4192 197.51 16.4192C195.916 16.4192 194.61 16.9304 193.59 17.9528C192.6 18.9608 192.104 20.2568 192.104 21.8408C192.104 23.4248 192.6 24.7208 193.59 25.7288C194.61 26.7512 195.916 27.2624 197.51 27.2624C198.458 27.2624 199.319 27.0464 200.094 26.6144C200.87 26.168 201.451 25.5704 201.839 24.8216L203.993 26.0528C203.375 27.1472 202.478 28.0328 201.301 28.7096C200.166 29.3576 198.903 29.6816 197.51 29.6816Z" fill="#2F444E"/>
<path d="M219.513 29.4008H216.843L215.787 26.3552H209.369L208.314 29.4008H205.622L211.092 14.2808H214.064L219.513 29.4008ZM212.578 17.1968L210.188 24.0224H214.969L212.578 17.1968Z" fill="#2F444E"/>
<path d="M221.089 29.4008V27.1112C222.065 27.2408 222.776 27.0032 223.221 26.3984C223.68 25.7792 223.91 24.656 223.91 23.0288V14.2808H234.011V29.4008H231.534V16.6568H226.387V22.9856C226.387 25.6208 225.848 27.4208 224.771 28.3856C223.809 29.2208 222.582 29.5592 221.089 29.4008Z" fill="#2F444E"/>
<path d="M236.91 14.2808H247.893V16.6568H243.651V29.4008H241.174V16.6568H236.91V14.2808Z" fill="#2F444E"/>
<path d="M262.324 29.4008H259.847V19.1408L252.74 29.4008H250.802V14.2808H253.278V24.5408L260.386 14.2808H262.324V29.4008Z" fill="#2F444E"/>
<path d="M275.349 20.48V14.2808H277.826V29.4008H275.349V22.856H268.888V29.4008H266.412V14.2808H268.888V20.48H275.349Z" fill="#2F444E"/>
<path d="M281.916 14.2808H290.423V16.6568H284.393V29.4008H281.916V14.2808Z" fill="#2F444E"/>
<path d="M299.802 14.2808H308.309V16.6568H302.278V29.4008H299.802V14.2808Z" fill="#2F444E"/>
<path d="M311.226 14.2808H316.783C318.204 14.2808 319.389 14.756 320.336 15.7064C321.298 16.6568 321.779 17.8376 321.779 19.2488C321.779 20.6456 321.298 21.8264 320.336 22.7912C319.389 23.7416 318.204 24.2168 316.783 24.2168H313.703V29.4008H311.226V14.2808ZM313.703 21.884H316.783C317.515 21.884 318.118 21.6392 318.592 21.1496C319.066 20.6456 319.302 20.012 319.302 19.2488C319.302 18.4856 319.066 17.8592 318.592 17.3696C318.118 16.8656 317.515 16.6136 316.783 16.6136H313.703V21.884Z" fill="#2F444E"/>
<path d="M329.545 22.2512L332.84 14.2808H335.338L330.665 25.5128C329.516 28.2632 327.657 29.5592 325.087 29.4008V27.0896C325.934 27.176 326.616 27.0536 327.133 26.7224C327.664 26.3768 328.087 25.7936 328.403 24.9728L323.385 14.2808H325.883L329.545 22.2512Z" fill="#2F444E"/>
<path d="M338.134 14.2808H349.226V29.4008H346.749V16.6568H340.611V29.4008H338.134V14.2808Z" fill="#2F444E"/>
<path d="M353.324 14.2808H364.415V29.4008H361.938V16.6568H355.8V29.4008H353.324V14.2808Z" fill="#2F444E"/>
<path fill-rule="evenodd" clip-rule="evenodd" d="M13.92 13.0991H48.1845H58.8922V23.8253V58.1491H48.1845V34.2366L10.586 71.9999L0 61.3674L37.3783 23.8253H13.92V13.0991Z" fill="#BB382A"/>
<path fill-rule="evenodd" clip-rule="evenodd" d="M64.3452 48.1753L64.3452 13.8515L75.0528 13.8515L75.0528 37.7632L112.651 -2.38136e-05L123.237 10.6324L85.8582 48.1753L109.317 48.1753L109.317 58.9015L75.0528 58.9015L64.3452 58.9015L64.3452 48.1753Z" fill="#2F444E"/>
</svg>
